<?xml version="1.0" encoding="UTF-8" ?>
<!DOCTYPE svg PUBLIC "-//W3C//DTD SVG 1.1//EN" "http://www.w3.org/Graphics/SVG/1.1/DTD/svg11.dtd">
<svg width="200pt" height="200pt" viewBox="0 0 200 200" version="1.1" xmlns="http://www.w3.org/2000/svg">
<g id="#000000ff">
<path fill="#000000" opacity="1.00" d=" M 66.22 35.24 C 75.85 33.23 86.36 36.78 92.76 44.25 C 101.99 54.58 102.45 72.44 91.84 82.01 C 106.44 87.94 119.26 98.16 135.01 101.19 C 146.97 104.26 159.70 101.45 171.43 105.62 C 178.54 107.96 184.98 113.16 187.52 120.36 C 189.14 124.38 188.77 128.76 188.79 132.99 C 188.78 143.42 188.79 153.86 188.79 164.29 C 160.38 164.31 131.97 164.30 103.57 164.29 C 103.55 151.52 103.56 138.75 103.57 125.98 C 103.61 118.63 98.68 111.98 92.33 108.64 C 84.59 104.51 75.52 103.95 66.93 104.43 C 58.95 104.99 50.60 107.00 44.49 112.46 C 40.72 115.91 37.77 120.74 37.88 125.99 C 37.91 138.76 37.89 151.53 37.89 164.30 C 35.91 164.28 33.93 164.28 31.94 164.30 C 31.96 155.17 31.87 146.03 32.00 136.90 C 29.70 138.75 27.21 140.62 24.17 140.94 C 17.66 142.09 10.87 137.37 9.64 130.90 C 8.28 124.33 11.21 117.93 14.18 112.25 C 22.43 97.64 37.34 88.19 52.64 82.29 C 46.40 76.76 42.95 68.28 43.96 59.96 C 44.88 47.99 54.45 37.45 66.22 35.24 M 65.35 41.59 C 56.87 44.10 50.39 52.13 49.86 60.97 C 48.99 70.12 54.71 79.30 63.14 82.83 C 69.35 85.52 76.80 85.09 82.65 81.68 C 89.23 77.96 93.66 70.65 93.71 63.06 C 93.91 56.11 90.51 49.21 84.93 45.06 C 79.45 40.86 71.94 39.57 65.35 41.59 Z" />
<path fill="#000000" opacity="1.00" d=" M 147.23 35.29 C 161.38 31.92 176.82 41.61 180.06 55.74 C 183.87 69.37 175.43 84.79 161.98 89.06 C 149.46 93.59 134.34 87.58 128.32 75.72 C 124.07 67.87 123.98 57.97 128.05 50.03 C 131.78 42.55 139.04 36.96 147.23 35.29 Z" />
</g>
</svg>
