<?xml version="1.0" encoding="UTF-8" ?>
<!DOCTYPE svg PUBLIC "-//W3C//DTD SVG 1.1//EN" "http://www.w3.org/Graphics/SVG/1.1/DTD/svg11.dtd">
<svg width="512pt" height="512pt" viewBox="0 0 512 512" version="1.1" xmlns="http://www.w3.org/2000/svg">
<g id="#1d1d1dff">
<path fill="#1d1d1d" opacity="1.00" d=" M 209.35 54.34 C 220.83 42.85 236.68 35.79 252.93 35.11 C 265.48 34.48 278.18 37.61 289.05 43.91 C 305.51 53.35 317.58 70.14 321.10 88.82 C 322.82 96.77 322.22 104.93 322.33 113.00 C 322.35 118.73 322.33 124.47 322.26 130.20 C 324.16 130.43 326.07 130.51 327.99 130.52 C 378.66 130.46 429.33 130.53 480.00 130.49 C 484.03 130.55 488.31 130.06 492.03 131.97 C 497.73 134.60 501.62 140.66 501.32 146.99 C 501.37 251.32 501.29 355.66 501.35 460.00 C 501.63 465.82 498.68 471.65 493.61 474.61 C 488.34 477.91 481.89 476.89 476.00 476.98 C 326.31 476.95 176.62 476.99 26.92 476.96 C 20.00 477.13 13.31 472.30 11.36 465.66 C 10.37 461.85 10.73 457.88 10.66 454.00 C 10.68 351.66 10.67 249.32 10.66 146.99 C 10.47 140.95 13.92 135.06 19.30 132.31 C 23.79 129.83 29.09 130.57 34.00 130.49 C 81.33 130.52 128.67 130.49 176.00 130.50 C 180.57 130.46 185.16 130.79 189.71 130.16 C 189.70 120.12 189.58 110.07 189.71 100.03 C 189.93 83.01 197.27 66.30 209.35 54.34 M 251.70 67.34 C 235.16 69.05 221.55 84.39 221.70 101.01 C 221.79 129.57 221.39 158.14 221.91 186.69 C 244.63 186.62 267.36 186.64 290.09 186.69 C 290.48 182.14 290.34 177.56 290.32 173.00 C 290.34 149.34 290.31 125.68 290.33 102.02 C 290.35 97.35 289.50 92.68 287.72 88.36 C 282.17 74.37 266.67 65.09 251.70 67.34 M 42.74 162.62 C 42.64 256.73 42.62 350.85 42.75 444.95 C 184.92 444.96 327.08 444.96 469.24 444.95 C 469.39 350.85 469.36 256.73 469.26 162.62 C 422.17 162.38 375.07 162.64 327.98 162.49 C 326.07 162.51 324.16 162.59 322.27 162.81 C 322.41 174.87 322.25 186.93 322.37 198.99 C 322.37 202.84 322.36 206.93 320.36 210.35 C 317.59 215.49 311.89 218.77 306.06 218.65 C 272.69 218.67 239.31 218.67 205.93 218.65 C 197.47 219.01 189.58 211.56 189.72 203.03 C 189.61 189.63 189.64 176.22 189.73 162.81 C 183.84 162.18 177.91 162.68 172.01 162.53 C 128.92 162.59 85.83 162.40 42.74 162.62 Z" />
<path fill="#1d1d1d" opacity="1.00" d=" M 111.94 265.95 C 123.89 255.53 141.10 251.50 156.42 255.61 C 169.98 258.99 181.79 268.51 188.16 280.93 C 194.37 292.80 195.47 307.28 190.88 319.89 C 189.12 325.06 186.21 329.73 183.15 334.22 C 196.74 344.54 206.78 359.75 209.51 376.73 C 210.43 383.37 211.89 390.93 207.78 396.85 C 203.36 403.80 193.29 406.14 186.31 401.70 C 180.74 398.65 178.18 392.17 178.36 386.05 C 177.94 368.69 162.37 353.43 144.99 353.45 C 127.39 352.51 110.91 367.42 109.98 384.98 C 109.92 389.82 109.25 395.05 105.66 398.66 C 100.61 404.60 91.14 405.68 84.80 401.20 C 80.46 398.35 77.81 393.23 77.83 388.06 C 77.61 370.45 85.10 352.96 97.67 340.68 C 100.05 338.41 102.61 336.34 105.05 334.15 C 99.09 325.94 94.98 316.21 94.60 305.98 C 93.83 290.90 100.41 275.69 111.94 265.95 M 140.34 286.43 C 130.38 288.41 123.87 299.93 127.53 309.46 C 130.39 318.94 142.07 324.14 151.05 320.00 C 159.55 316.54 164.02 305.92 160.54 297.42 C 157.70 289.48 148.57 284.43 140.34 286.43 Z" />
<path fill="#1d1d1d" opacity="1.00" d=" M 292.47 276.75 C 296.62 276.23 300.82 276.53 305.00 276.47 C 340.67 276.50 376.33 276.48 412.00 276.48 C 415.11 276.50 418.26 276.31 421.36 276.78 C 428.77 278.17 434.66 285.42 434.17 293.01 C 434.15 301.45 426.42 308.83 418.00 308.50 C 376.99 308.52 335.99 308.53 294.99 308.50 C 287.02 308.61 279.70 301.86 279.21 293.89 C 278.33 285.88 284.47 277.89 292.47 276.75 Z" />
<path fill="#1d1d1d" opacity="1.00" d=" M 291.40 355.56 C 293.55 355.07 295.77 355.06 297.98 355.04 C 338.01 355.11 378.04 355.01 418.07 355.09 C 424.23 354.95 430.11 358.75 432.71 364.29 C 436.03 371.12 433.63 380.09 427.27 384.28 C 422.29 387.97 415.80 386.98 410.01 387.09 C 371.65 387.03 333.29 387.11 294.93 387.06 C 286.80 387.21 279.36 380.11 279.18 371.97 C 278.60 364.49 284.08 357.15 291.40 355.56 Z" />
</g>
</svg>
