<?xml version="1.0" encoding="UTF-8" ?>
<!DOCTYPE svg PUBLIC "-//W3C//DTD SVG 1.1//EN" "http://www.w3.org/Graphics/SVG/1.1/DTD/svg11.dtd">
<svg width="512pt" height="512pt" viewBox="0 0 512 512" version="1.1" xmlns="http://www.w3.org/2000/svg">
<g id="#ffffffff">
</g>
<g id="#000000ff">
<path fill="#000000" opacity="1.00" d=" M 234.00 0.00 L 278.00 0.00 C 278.00 33.33 278.00 66.67 278.00 100.00 L 278.94 100.00 C 279.00 98.87 279.07 97.73 279.16 96.60 C 279.83 94.93 280.20 93.17 280.70 91.45 C 280.97 90.09 281.22 88.73 281.68 87.43 C 281.98 86.07 282.20 84.68 282.78 83.41 C 282.92 82.47 283.07 81.53 283.23 80.59 C 283.76 79.30 284.02 77.93 284.32 76.58 C 284.74 75.27 285.02 73.92 285.33 72.58 C 285.74 71.26 286.02 69.91 286.32 68.57 C 286.78 67.27 287.02 65.90 287.30 64.55 C 287.80 62.86 288.20 61.14 288.69 59.44 C 288.97 58.08 289.19 56.69 289.78 55.41 C 289.93 54.47 290.07 53.52 290.22 52.58 C 290.80 50.89 291.20 49.16 291.70 47.45 C 291.97 46.09 292.23 44.73 292.67 43.42 C 292.97 42.07 293.18 40.68 293.78 39.41 C 293.92 38.47 294.07 37.52 294.22 36.58 C 294.79 34.88 295.21 33.13 295.78 31.43 C 295.92 30.48 296.07 29.53 296.22 28.58 C 296.79 26.87 297.20 25.11 297.81 23.41 C 297.89 22.74 298.04 21.41 298.11 20.74 C 299.27 21.02 300.42 21.33 301.57 21.67 C 302.84 21.97 304.13 22.25 305.39 22.64 C 307.05 23.46 308.79 24.14 310.52 24.82 C 311.01 24.91 311.98 25.09 312.47 25.18 C 313.76 25.72 315.08 26.21 316.37 26.75 C 318.73 27.73 321.16 28.53 323.45 29.69 C 324.77 30.38 326.10 31.05 327.43 31.74 C 329.15 32.57 330.86 33.43 332.58 34.26 C 333.53 34.75 334.49 35.23 335.46 35.71 C 336.83 36.55 338.17 37.45 339.58 38.25 C 340.91 38.98 342.21 39.78 343.46 40.66 C 344.83 41.54 346.17 42.47 347.56 43.33 C 348.53 44.02 349.52 44.70 350.53 45.35 C 351.53 46.03 352.55 46.70 353.59 47.34 C 354.85 48.43 356.16 49.50 357.62 50.33 C 358.88 51.43 360.11 52.57 361.38 53.67 C 366.80 57.43 370.99 62.74 375.68 67.35 C 377.09 70.16 379.69 72.03 381.72 74.34 C 382.52 75.78 383.45 77.15 384.32 78.55 C 385.01 79.55 385.69 80.56 386.33 81.60 C 386.67 82.05 387.35 82.94 387.69 83.38 C 388.52 84.79 389.44 86.14 390.30 87.54 C 391.09 89.18 391.90 90.81 392.72 92.43 C 393.37 93.77 394.04 95.10 394.74 96.42 C 395.94 98.69 396.93 101.06 397.69 103.51 C 398.03 104.53 398.39 105.55 398.77 106.56 C 398.89 107.03 399.11 107.98 399.22 108.45 C 399.60 109.45 399.97 110.46 400.33 111.48 C 400.68 112.47 401.03 113.47 401.37 114.47 C 401.74 115.77 402.02 117.10 402.33 118.43 C 403.05 120.44 402.85 122.68 403.83 124.61 C 403.95 126.20 404.03 127.80 404.15 129.40 C 405.75 132.10 404.71 135.42 405.11 138.39 C 407.24 141.68 404.93 145.96 406.56 149.40 C 407.52 149.75 408.50 150.05 409.50 150.29 C 410.53 150.98 411.57 151.67 412.64 152.30 C 414.43 153.88 416.13 155.55 417.68 157.36 C 418.47 158.88 419.60 160.16 420.74 161.43 C 421.13 162.84 421.63 164.21 422.19 165.57 C 423.70 167.64 423.96 170.23 424.78 172.58 C 424.92 173.52 425.06 174.46 425.21 175.41 C 426.08 176.94 426.00 178.72 426.22 180.41 C 427.84 184.01 426.66 188.17 426.99 192.00 C 313.00 192.00 199.00 192.00 85.01 192.00 C 85.32 188.16 84.17 184.02 85.77 180.41 C 85.97 178.73 86.02 177.01 86.67 175.42 C 86.97 174.08 87.24 172.73 87.68 171.43 C 87.97 170.12 88.23 168.82 88.55 167.53 C 88.87 167.06 89.52 166.11 89.85 165.64 C 90.35 164.24 90.85 162.84 91.26 161.42 C 92.40 160.16 93.53 158.88 94.32 157.36 C 95.86 155.55 97.57 153.87 99.36 152.31 C 100.43 151.68 101.46 150.98 102.50 150.29 C 103.49 150.05 104.47 149.76 105.43 149.40 C 107.07 145.97 104.77 141.69 106.88 138.39 C 107.01 135.80 106.99 133.20 107.12 130.61 C 108.38 128.85 107.91 126.61 108.18 124.61 C 109.15 122.67 108.96 120.44 109.66 118.42 C 109.97 117.07 110.24 115.71 110.75 114.42 C 110.86 113.94 111.08 113.00 111.19 112.52 C 111.75 111.18 112.25 109.82 112.82 108.48 C 112.92 108.00 113.12 107.04 113.22 106.56 C 113.60 105.55 113.97 104.53 114.32 103.50 C 114.78 102.20 115.20 100.88 115.68 99.58 C 116.56 97.87 117.43 96.16 118.27 94.43 C 119.31 92.44 120.32 90.44 121.22 88.38 C 121.98 87.06 122.79 85.78 123.66 84.53 C 124.30 83.52 124.97 82.52 125.65 81.53 C 126.30 80.52 126.99 79.54 127.69 78.56 C 128.55 77.15 129.47 75.78 130.27 74.34 C 132.31 72.03 134.91 70.16 136.32 67.36 C 141.01 62.74 145.20 57.43 150.62 53.67 C 151.88 52.57 153.11 51.43 154.38 50.33 C 155.84 49.49 157.14 48.43 158.42 47.34 C 159.44 46.70 160.45 46.02 161.45 45.34 C 162.83 44.47 164.17 43.53 165.55 42.67 C 166.53 41.98 167.52 41.30 168.52 40.64 C 169.78 39.78 171.08 38.98 172.43 38.26 C 173.83 37.45 175.17 36.54 176.54 35.70 C 178.85 34.58 181.15 33.45 183.41 32.26 C 184.47 31.76 185.53 31.24 186.59 30.74 C 187.08 30.48 188.06 29.95 188.54 29.69 C 190.13 28.85 191.79 28.14 193.54 27.74 C 194.51 27.25 195.49 26.76 196.46 26.27 C 197.50 25.94 198.54 25.60 199.57 25.23 C 200.04 25.13 201.00 24.92 201.48 24.81 C 203.20 24.13 204.94 23.46 206.61 22.64 C 207.86 22.24 209.14 21.97 210.43 21.68 C 211.57 21.33 212.73 21.02 213.89 20.74 C 213.96 21.41 214.11 22.74 214.19 23.41 C 214.78 25.11 215.21 26.87 215.79 28.58 C 215.92 29.52 216.07 30.47 216.21 31.42 C 216.79 33.12 217.20 34.87 217.78 36.58 C 217.92 37.53 218.07 38.48 218.22 39.42 C 218.82 41.10 219.21 42.84 219.70 44.56 C 219.97 45.92 220.19 47.31 220.78 48.59 C 220.92 49.53 221.07 50.47 221.22 51.41 C 221.79 52.69 222.02 54.07 222.32 55.43 C 222.77 56.73 223.03 58.09 223.30 59.44 C 223.79 61.16 224.17 62.90 224.79 64.58 C 224.92 65.52 225.07 66.47 225.21 67.42 C 225.81 69.10 226.20 70.84 226.70 72.56 C 226.97 73.90 227.23 75.26 227.67 76.57 C 227.97 77.91 228.23 79.27 228.68 80.57 C 228.97 81.91 229.26 83.26 229.67 84.58 C 229.97 85.93 230.21 87.31 230.78 88.59 C 230.93 89.53 231.07 90.46 231.22 91.40 C 231.78 92.69 232.02 94.07 232.32 95.43 C 232.99 96.86 232.99 98.46 233.15 100.00 L 234.00 100.00 C 234.00 66.67 234.00 33.33 234.00 0.00 Z" />
<path fill="#000000" opacity="1.00" d=" M 134.38 212.14 C 139.57 211.78 144.80 212.11 150.00 212.00 C 150.02 216.20 149.95 220.40 150.05 224.60 C 151.86 225.97 150.67 228.65 151.05 230.60 C 152.72 231.68 151.74 233.96 152.08 235.60 C 153.51 236.44 152.82 238.26 153.12 239.60 C 154.75 240.73 153.29 243.17 154.80 244.40 C 154.82 245.52 155.14 246.52 155.78 247.40 C 155.97 248.91 156.55 250.30 157.29 251.62 C 158.09 253.54 158.57 255.59 159.69 257.38 C 159.94 257.88 160.44 258.89 160.70 259.39 C 160.95 259.89 161.46 260.89 161.71 261.39 C 161.95 261.89 162.42 262.90 162.66 263.40 C 163.54 265.14 164.95 266.55 165.71 268.36 C 168.15 272.75 171.33 276.67 174.23 280.74 C 179.11 285.55 183.88 290.49 188.81 295.24 C 192.53 297.45 195.52 300.73 199.36 302.70 C 201.16 303.49 202.56 304.92 204.34 305.76 C 205.45 306.23 206.54 306.76 207.65 307.26 C 208.55 307.75 209.45 308.24 210.36 308.73 C 210.87 308.97 211.89 309.44 212.40 309.68 C 212.89 309.95 213.87 310.48 214.36 310.75 C 215.97 311.62 217.81 311.89 219.41 312.78 C 220.49 312.84 221.48 313.16 222.39 313.73 C 224.12 315.28 226.81 314.37 228.40 315.92 C 229.47 315.97 230.53 316.02 231.60 316.07 C 232.43 317.51 234.27 316.81 235.61 317.11 C 237.53 319.43 241.55 316.53 243.40 318.96 C 251.80 318.96 260.23 319.17 268.62 318.87 L 269.40 318.04 C 271.66 317.61 274.70 318.95 276.40 317.07 C 277.46 317.02 278.53 316.97 279.60 316.93 C 280.66 315.16 283.27 316.80 284.40 315.12 C 285.72 314.89 287.32 315.31 288.38 314.27 C 289.71 313.56 291.09 312.99 292.59 312.75 C 294.20 311.91 296.03 311.60 297.65 310.75 C 298.94 310.00 300.28 309.33 301.63 308.70 C 302.95 308.01 304.28 307.34 305.63 306.70 C 308.16 305.70 310.28 304.00 312.63 302.70 C 322.32 297.05 329.86 288.60 337.77 280.74 C 340.67 276.67 343.85 272.75 346.29 268.36 C 347.05 266.54 348.47 265.14 349.34 263.39 C 349.98 262.04 350.65 260.72 351.30 259.38 C 351.55 258.88 352.05 257.88 352.31 257.38 C 353.43 255.59 353.90 253.54 354.71 251.62 C 355.44 250.30 356.03 248.91 356.22 247.40 C 356.85 246.52 357.18 245.52 357.19 244.40 C 358.73 243.18 357.20 240.67 358.93 239.60 C 358.97 238.53 359.02 237.46 359.07 236.40 C 360.71 235.30 359.74 233.03 360.08 231.40 C 361.84 229.99 360.68 227.35 361.05 225.40 L 361.86 224.62 C 362.22 220.43 361.89 216.20 362.00 212.00 C 367.20 212.03 372.40 211.94 377.60 212.05 L 378.38 212.86 C 384.43 213.24 390.53 212.83 396.60 213.04 C 399.03 215.14 402.97 213.49 406.00 213.99 C 406.00 216.19 406.01 218.40 405.96 220.60 C 404.33 221.50 405.22 223.58 404.98 225.04 C 405.00 227.56 405.03 230.08 404.95 232.60 C 403.13 233.97 404.32 236.65 403.95 238.60 C 401.67 240.15 404.28 243.76 402.11 245.39 C 401.82 246.72 402.48 248.51 401.12 249.39 C 400.81 250.72 401.49 252.54 400.09 253.40 C 400.04 253.95 399.95 255.05 399.91 255.60 C 398.40 257.21 399.27 259.87 397.73 261.62 C 397.15 262.51 396.84 263.50 396.80 264.60 C 396.15 265.46 395.81 266.46 395.79 267.60 C 394.72 269.91 394.04 272.42 392.70 274.63 C 392.00 275.95 391.34 277.28 390.70 278.63 C 390.00 279.94 389.33 281.28 388.72 282.64 C 388.24 283.55 387.76 284.46 387.28 285.36 C 387.04 285.87 386.58 286.89 386.35 287.40 C 384.81 290.15 382.67 292.52 381.28 295.35 C 378.30 300.16 374.34 304.40 371.25 309.18 C 369.56 311.20 367.44 312.80 365.75 314.81 C 364.24 317.52 362.03 319.80 359.56 321.66 C 355.56 323.78 353.43 328.21 349.44 330.35 C 344.91 333.87 340.35 337.43 335.36 340.29 C 333.53 341.02 332.17 342.53 330.36 343.29 C 328.57 344.08 327.10 345.40 325.43 346.39 C 323.42 346.97 321.42 347.60 319.63 348.71 C 318.54 349.23 317.45 349.76 316.37 350.29 C 314.20 351.66 311.66 352.13 309.38 353.25 C 308.49 353.84 307.50 354.17 306.41 354.22 C 305.29 355.12 303.69 354.86 302.60 355.79 C 301.40 355.77 300.40 356.14 299.59 356.91 C 299.05 356.95 297.95 357.04 297.40 357.09 C 296.55 358.50 294.72 357.82 293.40 358.12 C 292.51 359.48 290.72 358.82 289.39 359.11 C 288.24 360.67 286.03 359.75 284.40 360.07 C 282.69 361.95 279.66 360.61 277.40 361.04 C 275.57 363.51 271.43 360.49 269.60 362.96 C 260.53 362.96 251.43 363.17 242.38 362.87 L 241.60 362.04 C 239.34 361.59 236.26 362.98 234.60 361.04 C 232.34 360.60 229.31 361.96 227.60 360.08 C 225.96 359.74 223.70 360.70 222.60 359.07 C 221.53 359.02 220.46 358.97 219.40 358.93 C 218.33 357.15 215.69 358.83 214.59 357.09 C 214.05 357.04 212.95 356.95 212.40 356.91 C 211.59 356.13 210.59 355.76 209.40 355.81 C 208.54 355.14 207.54 354.80 206.41 354.78 C 204.82 353.89 202.96 353.64 201.38 352.72 C 199.47 351.88 197.40 351.44 195.62 350.30 C 195.12 350.05 194.11 349.56 193.60 349.31 C 193.11 349.05 192.13 348.51 191.64 348.25 C 190.01 347.48 188.29 346.94 186.58 346.38 C 184.89 345.40 183.44 344.07 181.64 343.29 C 180.04 342.72 178.96 341.28 177.36 340.71 C 172.09 337.76 167.31 334.04 162.56 330.35 C 159.21 328.50 157.10 325.15 154.19 322.75 C 151.47 321.24 149.19 319.03 147.34 316.56 C 145.81 313.56 142.84 311.74 140.76 309.19 C 137.53 304.15 133.29 299.79 130.30 294.64 C 129.04 292.04 126.98 289.94 125.66 287.39 C 125.01 286.04 124.35 284.71 123.71 283.37 C 122.89 281.79 122.10 280.20 121.29 278.62 C 121.04 278.12 120.54 277.12 120.28 276.62 C 119.77 275.53 119.23 274.45 118.72 273.36 C 117.82 271.81 116.94 270.22 116.77 268.40 C 115.88 267.28 116.11 265.70 115.22 264.60 C 115.15 263.50 114.84 262.51 114.27 261.62 C 112.72 259.88 113.60 257.21 112.09 255.59 C 112.05 255.05 111.96 253.95 111.91 253.41 C 110.51 252.54 111.17 250.73 110.88 249.40 C 109.52 248.51 110.17 246.72 109.89 245.39 C 108.20 243.94 109.31 241.35 108.95 239.40 C 107.14 238.02 108.33 235.35 107.95 233.40 L 107.14 232.62 C 106.76 228.90 107.15 225.13 106.96 221.40 C 104.98 219.61 106.40 216.38 106.01 214.00 C 108.87 213.99 111.73 214.03 114.60 213.95 L 115.38 213.14 C 121.43 212.76 127.53 213.16 133.60 212.96 L 134.38 212.14 Z" />
<path fill="#000000" opacity="1.00" d=" M 154.43 371.69 C 156.73 370.38 159.43 370.97 161.63 372.15 C 163.54 373.38 165.43 374.63 167.38 375.80 C 170.33 377.28 173.50 378.23 176.46 379.68 C 176.94 379.96 177.90 380.51 178.38 380.79 C 180.05 381.44 181.73 382.07 183.39 382.75 C 184.74 383.32 186.10 383.87 187.51 384.31 C 189.24 384.90 190.97 385.54 192.63 386.32 C 194.26 386.83 195.94 387.21 197.57 387.74 C 198.03 387.87 198.97 388.13 199.44 388.26 C 201.13 388.81 202.86 389.21 204.57 389.74 C 205.03 389.88 205.95 390.15 206.42 390.28 C 208.40 391.10 210.64 390.85 212.59 391.77 C 213.53 391.92 214.46 392.06 215.41 392.22 C 217.63 393.54 220.44 392.41 222.61 393.85 C 224.54 393.97 226.46 394.02 228.39 394.14 C 231.10 395.74 234.41 394.72 237.39 395.10 C 237.77 395.30 238.54 395.69 238.92 395.89 C 247.94 396.19 256.99 395.87 266.02 396.03 C 267.90 395.94 269.99 396.35 271.61 395.12 C 274.20 394.99 276.80 395.00 279.39 394.88 C 281.14 393.61 283.38 394.08 285.39 393.83 C 287.57 392.47 290.30 393.42 292.58 392.32 C 293.93 392.01 295.31 391.80 296.60 391.24 C 298.27 391.02 299.99 390.97 301.58 390.33 C 302.92 390.02 304.29 389.78 305.57 389.26 C 306.04 389.13 306.97 388.88 307.44 388.75 C 309.13 388.20 310.87 387.79 312.57 387.25 C 313.03 387.13 313.97 386.89 314.44 386.77 C 315.45 386.38 316.47 386.02 317.50 385.68 C 318.82 385.21 320.17 384.78 321.50 384.30 C 322.51 383.99 323.51 383.67 324.52 383.35 C 325.90 382.87 327.26 382.32 328.62 381.76 C 330.28 381.08 331.95 380.43 333.61 379.73 C 335.59 379.01 337.59 378.29 339.43 377.23 C 342.47 376.00 345.58 374.93 348.42 373.27 C 351.17 371.73 354.46 369.83 357.57 371.69 C 358.89 371.97 360.22 372.25 361.54 372.59 C 362.55 372.97 363.55 373.38 364.55 373.80 C 365.03 373.90 365.99 374.11 366.47 374.21 C 367.80 374.73 369.15 375.19 370.50 375.70 C 371.52 376.03 372.54 376.39 373.56 376.78 C 374.04 376.88 374.99 377.09 375.47 377.20 C 377.17 377.87 378.88 378.50 380.57 379.24 C 382.78 380.51 385.23 381.24 387.58 382.23 C 390.05 383.72 392.91 384.33 395.45 385.70 C 395.95 385.95 396.94 386.45 397.43 386.70 C 399.58 387.69 401.56 389.00 403.55 390.30 C 406.34 391.47 408.80 393.27 411.44 394.74 C 412.84 395.55 414.18 396.47 415.55 397.33 C 416.54 398.01 417.55 398.69 418.58 399.34 C 419.85 400.42 421.15 401.49 422.62 402.33 C 423.88 403.43 425.11 404.57 426.38 405.67 C 429.20 407.02 430.79 409.99 433.64 411.31 C 438.13 415.52 442.48 419.87 446.68 424.36 C 447.86 426.72 449.95 428.41 451.69 430.36 C 452.65 432.30 454.24 433.82 455.72 435.37 C 456.54 436.80 457.45 438.18 458.30 439.60 C 459.39 440.85 460.46 442.13 461.40 443.52 C 462.03 444.52 462.67 445.52 463.27 446.56 C 464.35 448.55 465.64 450.44 466.74 452.43 C 467.54 453.83 468.45 455.16 469.31 456.54 C 469.96 457.88 470.61 459.23 471.25 460.59 C 471.75 461.52 472.25 462.46 472.76 463.41 C 473.24 464.46 473.75 465.52 474.25 466.58 C 475.08 468.19 475.91 469.81 476.79 471.40 C 477.63 473.46 478.38 475.55 479.21 477.62 C 479.49 478.10 480.05 479.07 480.33 479.55 C 480.79 480.82 481.22 482.11 481.73 483.37 C 482.32 484.72 482.88 486.09 483.33 487.50 C 483.78 488.83 484.20 490.17 484.67 491.50 C 484.99 492.46 485.34 493.41 485.71 494.36 C 486.67 496.33 487.11 498.48 487.75 500.57 C 487.86 501.04 488.08 502.00 488.19 502.48 C 488.75 503.81 489.24 505.18 489.81 506.53 C 489.92 507.00 490.14 507.95 490.26 508.42 C 490.66 509.59 491.00 510.78 491.27 512.00 L 20.72 512.00 C 21.00 510.81 21.30 509.63 21.62 508.47 C 21.99 507.45 22.39 506.44 22.80 505.45 C 22.90 504.97 23.10 504.02 23.20 503.55 C 23.61 502.54 23.99 501.53 24.37 500.52 C 24.87 498.42 25.30 496.29 26.29 494.36 C 26.65 493.40 26.99 492.45 27.32 491.50 C 27.79 490.16 28.21 488.82 28.69 487.50 C 29.01 486.53 29.34 485.57 29.70 484.62 C 30.61 482.58 31.36 480.48 32.24 478.43 C 33.52 476.21 34.26 473.75 35.19 471.39 C 35.72 470.45 36.24 469.52 36.76 468.59 C 37.69 466.55 38.69 464.55 39.74 462.58 C 40.58 460.85 41.43 459.14 42.22 457.39 C 43.37 455.44 44.65 453.57 45.74 451.58 C 46.72 449.89 47.80 448.27 48.75 446.57 C 49.56 445.15 50.46 443.78 51.28 442.37 C 52.09 441.45 52.91 440.54 53.72 439.63 C 54.54 438.19 55.45 436.80 56.27 435.36 C 57.42 434.12 58.57 432.89 59.68 431.63 C 61.02 428.79 64.00 427.20 65.32 424.36 C 69.52 419.87 73.87 415.52 78.36 411.31 C 81.20 410.00 82.79 407.02 85.62 405.67 C 86.88 404.57 88.12 403.43 89.38 402.33 C 90.85 401.50 92.14 400.42 93.42 399.33 C 94.80 398.46 96.16 397.53 97.54 396.66 C 98.53 395.99 99.52 395.33 100.54 394.72 C 102.56 393.66 104.45 392.37 106.39 391.20 C 106.92 390.99 107.96 390.56 108.48 390.35 C 109.83 389.46 111.16 388.53 112.53 387.67 C 113.04 387.44 114.06 386.98 114.57 386.75 C 115.90 386.04 117.24 385.35 118.58 384.67 C 119.85 384.21 121.14 383.79 122.41 383.31 C 125.25 381.59 128.55 380.88 131.43 379.23 C 133.09 378.50 134.79 377.89 136.50 377.28 C 137.51 376.98 138.52 376.67 139.53 376.35 C 140.54 375.99 141.55 375.61 142.55 375.21 C 143.02 375.11 143.97 374.89 144.45 374.78 C 145.45 374.39 146.46 374.02 147.48 373.67 C 148.47 373.31 149.47 372.96 150.47 372.62 C 151.78 372.26 153.10 371.98 154.43 371.69 Z" />
</g>
</svg>
