<svg xmlns="http://www.w3.org/2000/svg" xmlns:xlink="http://www.w3.org/1999/xlink" version="1.1" x="0px" y="0px" viewBox="0 0 100 125" enable-background="new 0 0 100 100" xml:space="preserve"><path d="M75.963,75.057l-0.055,0.216l-0.138,0.556l-0.405,0.404l-0.16,0.158l-7.424,7.396l-0.051,0.258l-0.046,0.242l-0.119,0.618  l-0.444,0.445l-0.178,0.179l-2.2,2.193c-0.761,0.745-1.766,1.156-2.829,1.156c-1.07,0-2.081-0.417-2.861-1.186l-4.77-4.787  c-0.764-0.763-1.183-1.778-1.181-2.858c0.002-1.083,0.428-2.098,1.189-2.849l2.191-2.184l0.175-0.172l0.44-0.435l0.607-0.118  l0.252-0.05l0.259-0.049l7.429-7.395l0.158-0.159l0.41-0.409l0.563-0.136l0.211-0.052l1.581-0.385l3.313-3.287  c0.365-0.362,0.745-0.739,1.129-1.12c-3.715-2.768-8.197-4.565-13.071-5.012c-0.103,4.721-7.1,8.529-15.715,8.529  c-8.618,0-15.613-3.809-15.715-8.529C15.327,57.442,5,68.523,5,82.019c0,14.301,11.593,14.265,25.892,14.265h26.665  c14.299,0,25.893,0.036,25.893-14.265c0-4.514-1.16-8.754-3.19-12.448l-3.902,3.906L75.963,75.057z"/><path d="M44.225,55.423c-8.747,0-15.974-9.48-17.135-21.789h-2.377c1.321,14.018,9.551,24.817,19.513,24.817  c9.96,0,18.191-10.799,19.513-24.817h-2.38C60.196,45.942,52.971,55.423,44.225,55.423z"/><path d="M23.783,30.717h40.882c1.594,0,2.884-1.291,2.884-2.883c0-1.593-1.29-2.883-2.884-2.883h-0.784  c0-7.661-4.388-14.293-10.781-17.536l-1.63,9.234c-0.128,0.731-0.763,1.246-1.482,1.246c-0.086,0-0.175-0.007-0.263-0.022  c-0.82-0.145-1.366-0.926-1.221-1.746l1.86-10.551c-0.698-1.116-1.937-1.859-3.351-1.859h-5.579c-1.412,0-2.649,0.743-3.349,1.859  l1.86,10.551c0.145,0.819-0.402,1.601-1.222,1.746c-0.088,0.015-0.177,0.022-0.263,0.022c-0.719,0-1.356-0.513-1.482-1.246  L35.35,7.416c-6.396,3.242-10.781,9.875-10.781,17.535h-0.786c-1.593,0-2.883,1.291-2.883,2.883  C20.9,29.427,22.189,30.717,23.783,30.717z"/><path d="M93.745,53.733l-0.028-0.028l-4.373-4.389l-0.141-0.141l-0.191-0.06l-3.294-1.019l-0.426-0.428l0.641-0.635l0.57-0.566  l-0.566-0.569l-1.786-1.796c-0.309-0.31-0.719-0.48-1.157-0.48c-0.433,0-0.839,0.169-1.146,0.473l-4.172,4.155  c-0.307,0.307-0.478,0.716-0.478,1.153c0,0.435,0.169,0.843,0.477,1.149l1.783,1.79l0.563,0.566l0.568-0.561l0.47-0.466  c0.681,0.911,1.636,2.653,0.299,3.983c-1.363,1.355-10.435,10.349-11.746,11.651l-2.136,0.521l-0.217,0.053L67.1,68.251  l-7.879,7.843l-0.877,0.168l-0.242,0.047l-0.174,0.172l-2.184,2.176c-0.376,0.369-0.583,0.866-0.585,1.395  c-0.001,0.53,0.203,1.025,0.578,1.399l4.771,4.79c0.382,0.376,0.878,0.58,1.405,0.58c0.521,0,1.016-0.201,1.389-0.568l2.188-2.181  l0.174-0.175l0.048-0.242l0.168-0.879l7.875-7.842l0.158-0.158l0.053-0.216l0.532-2.133l11.635-11.648  c0.294-0.179,1.005-0.539,1.604-0.539c0.357,0,0.527,0.129,0.625,0.228c1.593,1.593,0.287,3.859,0.273,3.881l-0.314,0.535  l0.437,0.438l1.134,1.137l0.512,0.514l0.563-0.457c0.16-0.131,3.916-3.229,4.028-7.231c0.107-3.777-1.088-5.352-1.223-5.52  L93.745,53.733z"/><text x="0" y="115" fill="#000000" font-size="5px" font-weight="bold" font-family="'Helvetica Neue', Helvetica, Arial-Unicode, Arial, Sans-serif">Created by Wilson Joseph</text><text x="0" y="120" fill="#000000" font-size="5px" font-weight="bold" font-family="'Helvetica Neue', Helvetica, Arial-Unicode, Arial, Sans-serif">from the Noun Project</text></svg>