<?xml version="1.0" encoding="UTF-8" ?>
<!DOCTYPE svg PUBLIC "-//W3C//DTD SVG 1.1//EN" "http://www.w3.org/Graphics/SVG/1.1/DTD/svg11.dtd">
<svg width="300pt" height="181pt" viewBox="0 0 300 181" version="1.1" xmlns="http://www.w3.org/2000/svg">
<g id="#000000ff">
<path fill="#000000" opacity="1.00" d=" M 165.06 84.27 C 183.83 58.98 202.21 33.27 222.66 9.33 C 205.31 36.02 186.55 61.87 168.63 88.22 C 178.85 102.89 189.57 117.21 199.94 131.77 C 197.78 131.74 195.62 131.70 193.46 131.64 C 184.03 118.54 174.67 105.39 165.05 92.43 C 155.52 105.47 146.04 118.54 136.60 131.64 C 134.57 131.71 132.54 131.76 130.51 131.79 C 140.52 116.98 151.60 102.90 161.84 88.24 C 152.09 74.59 141.97 61.18 132.62 47.26 C 134.59 47.28 136.57 47.32 138.55 47.37 C 147.34 59.70 156.18 72.00 165.06 84.27 Z" />
<path fill="#000000" opacity="1.00" d=" M 0.00 47.24 C 2.19 47.28 4.38 47.33 6.57 47.38 C 31.00 83.94 55.50 120.46 79.94 157.02 C 82.88 161.54 86.32 165.76 88.61 170.68 C 58.46 133.59 32.95 93.03 5.45 53.98 C 5.31 79.88 5.43 105.79 5.14 131.69 C 3.43 131.73 1.71 131.77 0.00 131.82 L 0.00 47.24 Z" />
<path fill="#000000" opacity="1.00" d=" M 70.89 47.24 C 89.24 47.38 107.60 47.21 125.95 47.32 C 128.49 47.16 127.08 50.40 127.37 51.88 C 110.26 51.84 93.14 51.81 76.03 51.89 C 75.93 63.14 75.79 74.39 76.11 85.63 C 92.18 85.59 108.25 85.53 124.31 85.66 C 124.31 87.15 124.31 88.64 124.30 90.14 C 108.22 90.24 92.13 90.14 76.04 90.19 C 75.85 102.51 75.93 114.85 76.00 127.18 C 93.32 127.30 110.64 127.18 127.95 127.23 C 127.95 128.73 127.94 130.23 127.93 131.74 C 108.91 131.75 89.88 131.69 70.86 131.77 C 70.65 103.60 70.59 75.41 70.89 47.24 Z" />
<path fill="#000000" opacity="1.00" d=" M 202.10 47.28 C 223.61 47.33 245.12 47.23 266.62 47.34 C 266.63 48.83 266.64 50.32 266.66 51.81 C 256.74 51.93 246.83 51.77 236.91 51.89 C 236.82 78.50 236.89 105.12 236.88 131.73 C 235.19 131.75 233.51 131.77 231.82 131.80 C 231.46 105.21 231.74 78.61 231.69 52.01 C 221.81 51.63 211.92 51.97 202.04 51.84 C 202.06 50.32 202.08 48.80 202.10 47.28 Z" />
<path fill="#000000" opacity="1.00" d=" M 279.48 107.34 C 280.46 107.45 281.45 107.57 282.44 107.68 C 282.14 112.74 282.91 117.89 281.94 122.89 C 279.89 128.17 271.09 126.62 270.81 120.91 C 273.89 120.20 276.80 125.95 279.19 121.91 C 279.81 117.09 279.27 112.20 279.48 107.34 Z" />
<path fill="#000000" opacity="1.00" d=" M 288.42 108.40 C 292.21 105.62 298.04 107.01 300.00 111.36 L 300.00 112.83 C 297.01 110.89 290.18 106.90 289.30 112.81 C 292.34 115.39 296.83 115.41 300.00 117.96 L 300.00 122.68 C 296.41 127.92 286.81 127.25 285.56 120.43 C 289.51 121.97 293.58 125.16 297.67 122.00 C 296.86 117.92 292.28 118.09 289.25 116.65 C 285.75 115.55 285.60 110.33 288.42 108.40 Z" />
<path fill="#000000" opacity="1.00" d=" M 264.67 122.69 C 266.79 120.67 268.63 123.77 267.75 125.82 C 265.81 126.39 262.80 124.79 264.67 122.69 Z" />
</g>
</svg>
